<?xml version="1.0" standalone="no"?>
<!DOCTYPE svg PUBLIC "-//W3C//DTD SVG 20010904//EN"
 "http://www.w3.org/TR/2001/REC-SVG-20010904/DTD/svg10.dtd">
<svg version="1.0" xmlns="http://www.w3.org/2000/svg"
 width="160.000000pt" height="160.000000pt" viewBox="0 0 160.000000 160.000000"
 preserveAspectRatio="xMidYMid meet">
<metadata>
Created by potrace 1.11, written by Peter Selinger 2001-2013
</metadata>
<g transform="translate(0.000000,160.000000) scale(0.100000,-0.100000)"
fill="#000000" stroke="none">
<path d="M253 1586 c-102 -33 -176 -97 -222 -196 l-26 -55 0 -535 0 -535 33
-67 c38 -77 92 -130 171 -167 l56 -26 535 0 535 0 67 33 c77 38 130 92 167
171 l26 56 0 535 0 535 -26 56 c-37 79 -90 133 -167 171 l-67 33 -520 2 c-410
2 -529 -1 -562 -11z m668 -407 c9 -4 32 -2 54 5 39 14 76 8 82 -11 2 -6 -9
-15 -26 -21 -47 -17 -52 -36 -49 -216 l3 -165 123 148 c152 181 169 206 152
226 -7 8 -21 15 -31 15 -23 0 -25 16 -3 24 25 10 63 7 84 -6 15 -10 22 -10 32
0 17 17 94 16 101 -2 4 -9 -3 -16 -19 -20 -14 -4 -44 -24 -68 -46 -54 -50
-212 -239 -209 -251 6 -21 248 -341 279 -368 18 -17 49 -33 69 -37 23 -4 35
-12 35 -23 0 -14 -18 -16 -160 -16 -146 0 -160 2 -160 18 0 11 8 17 24 17 13
0 34 9 47 19 23 19 24 21 7 50 -9 17 -58 87 -109 156 l-93 125 -53 -57 -52
-58 -1 -97 c0 -93 1 -97 26 -117 15 -12 37 -21 50 -21 16 0 24 -6 24 -17 0
-16 -13 -18 -140 -18 -127 0 -140 2 -140 18 0 12 8 17 25 17 14 0 37 11 50 25
l25 24 0 303 c0 333 -1 340 -59 353 -20 4 -28 11 -25 20 10 24 62 26 105 4z
m-346 -14 c109 -48 161 -131 153 -245 -8 -112 -54 -175 -147 -200 -53 -14
-100 -7 -135 21 -31 24 -35 45 -7 29 11 -5 43 -10 71 -10 43 0 56 5 80 28 37
38 54 101 45 176 -14 130 -84 186 -230 186 -147 0 -226 -65 -242 -199 -5 -40
-10 -51 -24 -51 -48 0 -77 81 -41 116 9 10 17 33 18 51 2 52 47 92 131 113 63
15 281 6 328 -15z m-175 -379 c0 -304 0 -305 22 -320 12 -9 30 -16 40 -16 10
0 18 -7 18 -17 0 -16 -13 -18 -125 -18 -112 0 -125 2 -125 18 0 10 8 17 18 17
10 0 28 7 40 16 22 15 22 18 22 270 l0 255 -30 17 c-37 21 -39 42 -2 42 15 1
43 9 62 20 19 11 41 19 48 20 9 0 12 -67 12 -304z"/>
</g>
</svg>
