<?xml version="1.0" standalone="no"?>
<!DOCTYPE svg PUBLIC "-//W3C//DTD SVG 20010904//EN"
 "http://www.w3.org/TR/2001/REC-SVG-20010904/DTD/svg10.dtd">
<svg version="1.0" xmlns="http://www.w3.org/2000/svg"
 width="160.000000pt" height="160.000000pt" viewBox="0 0 160.000000 160.000000"
 preserveAspectRatio="xMidYMid meet">
<metadata>
Created by potrace 1.11, written by Peter Selinger 2001-2013
</metadata>
<g transform="translate(0.000000,160.000000) scale(0.100000,-0.100000)"
fill="#000000" stroke="none">
<path d="M0 800 l0 -800 548 1 c301 0 543 2 537 4 -5 2 -77 8 -160 14 -273 21
-339 38 -352 91 -3 14 -14 41 -24 60 l-19 34 37 38 c20 21 32 38 27 38 -6 0
-19 18 -29 40 -14 32 -21 38 -32 29 -7 -6 -13 -19 -14 -28 0 -9 -20 25 -44 76
-56 119 -60 133 -41 133 20 0 21 -1 -11 59 -25 49 -27 51 -45 35 -10 -10 -18
-27 -18 -38 0 -17 -2 -18 -10 -6 -20 32 -2 68 111 220 81 109 139 170 160 170
7 0 -67 -152 -91 -185 -12 -17 -22 -51 -12 -40 18 19 121 217 119 228 -1 7 6
11 16 9 9 -2 17 3 18 10 1 7 3 33 4 57 2 24 8 48 14 54 5 5 41 24 80 42 39 18
75 36 79 40 19 21 -128 -8 -187 -37 -63 -30 -151 -108 -151 -131 0 -7 21 12
46 41 50 57 75 69 47 22 -17 -29 -82 -80 -103 -80 -5 0 -10 14 -10 31 0 19 -4
28 -11 23 -7 -4 -9 0 -5 12 3 11 15 49 26 86 13 42 29 74 43 83 46 33 132 85
150 91 10 3 17 11 14 17 -2 7 -9 28 -15 47 -25 77 -42 124 -37 100 3 -14 7
-56 10 -95 6 -89 -10 -35 -21 68 -4 37 -11 67 -15 67 -5 0 -9 -7 -9 -15 0 -9
-11 -48 -25 -88 -14 -39 -28 -84 -30 -99 -6 -33 -23 -78 -29 -78 -10 0 20 106
71 253 12 38 23 75 23 83 0 12 -47 14 -315 14 l-315 0 0 -800z m505 410 c-3
-5 -10 -10 -16 -10 -5 0 -9 5 -9 10 0 6 7 10 16 10 8 0 12 -4 9 -10z m195 -84
c-14 -14 -24 0 -16 21 6 15 8 15 16 3 6 -9 5 -19 0 -24z m-246 -163 c-9 -32
-19 -52 -22 -44 -2 7 4 38 14 68 24 70 31 51 8 -24z m210 54 c-2 -7 -21 -21
-40 -32 -20 -11 -61 -46 -90 -79 -47 -52 -54 -56 -54 -35 0 44 35 84 106 122
76 40 86 43 78 24z m-216 -174 c-68 -133 -82 -153 -92 -128 -3 9 -2 13 4 10 5
-3 12 7 16 22 10 45 46 155 49 151 4 -4 -5 -50 -19 -98 -4 -14 11 10 33 54 23
43 41 84 41 92 0 8 6 14 14 14 10 0 -5 -38 -46 -117z m-60 -243 c-14 -22 -24
-19 -15 5 4 8 11 15 17 15 6 0 6 -7 -2 -20z m29 -57 c-8 -7 -37 9 -31 19 3 5
12 4 20 -3 8 -6 13 -14 11 -16z m-7 -32 c0 -12 -28 -22 -34 -12 -3 5 -3 11 1
15 9 9 33 7 33 -3z"/>
<path d="M645 1583 c4 -10 14 -40 21 -68 18 -65 46 -148 54 -158 4 -4 20 -1
36 8 l29 15 5 -39 c3 -21 21 -62 40 -92 19 -29 34 -59 32 -66 -2 -7 2 -13 8
-13 5 0 10 6 10 13 0 13 53 37 83 37 12 0 17 -9 17 -32 1 -18 7 -51 15 -73 19
-52 20 -49 -21 -64 -19 -7 -34 -15 -32 -17 2 -2 28 5 56 16 l52 20 0 -50 c0
-31 8 -66 20 -90 25 -49 34 -53 15 -7 -11 26 -11 37 -3 45 23 23 29 11 26 -47
l-3 -58 -65 2 c-36 1 -44 0 -17 -2 35 -3 47 -8 48 -21 0 -10 3 -12 6 -4 9 22
40 13 45 -13 4 -19 1 -25 -13 -25 -11 0 -19 5 -19 12 0 6 -2 9 -5 6 -3 -3 -1
-18 5 -34 9 -24 8 -31 -6 -41 -27 -20 -39 -15 -19 7 10 11 16 21 14 23 -113
73 -141 96 -161 134 -12 23 -24 40 -26 38 -2 -1 6 -22 18 -44 13 -27 40 -54
75 -77 30 -20 55 -38 55 -39 0 -2 -19 -1 -42 2 -24 3 -41 3 -38 0 3 -3 27 -7
53 -10 27 -3 51 -7 53 -10 3 -2 -13 -12 -36 -21 -22 -9 -40 -18 -40 -21 0 -2
11 0 24 5 l25 9 -29 -52 c-29 -54 -73 -168 -66 -174 2 -2 8 9 14 25 7 21 21
33 47 42 20 7 34 14 32 16 -2 3 -16 0 -31 -5 -35 -14 -35 8 2 72 24 42 37 53
95 78 61 26 67 27 67 10 0 -10 3 -38 6 -62 5 -40 4 -45 -17 -55 -13 -5 -18 -9
-11 -7 8 2 26 6 40 9 24 6 25 5 11 -7 -31 -27 -80 -98 -104 -151 -17 -37 -27
-81 -31 -141 -4 -48 -9 -87 -11 -87 -2 0 -16 6 -31 14 -15 7 -41 17 -59 20
-28 7 -31 5 -26 -13 3 -12 9 -21 14 -21 5 0 57 -23 115 -51 110 -53 124 -67
124 -130 0 -16 -5 -29 -12 -30 -7 0 -3 -4 10 -10 13 -5 20 -13 17 -19 -4 -7
62 -10 194 -10 l201 0 0 800 0 800 -481 0 c-454 0 -481 -1 -474 -17z m119
-123 c5 -61 5 -62 -4 -15 -5 28 -11 64 -14 80 -4 21 -3 25 3 15 5 -9 12 -45
15 -80z m203 -26 c-3 -3 -12 -4 -19 -1 -8 3 -5 6 6 6 11 1 17 -2 13 -5z m-47
-60 c0 -25 5 -54 11 -66 6 -11 9 -21 7 -23 -2 -1 -27 -5 -56 -7 -50 -5 -54 -4
-68 24 -26 51 -15 80 36 99 68 25 70 25 70 -27z m110 -134 c0 -5 -5 -10 -11
-10 -5 0 -7 5 -4 10 3 6 8 10 11 10 2 0 4 -4 4 -10z m-33 -72 c-2 -13 -4 -5
-4 17 -1 22 1 32 4 23 2 -10 2 -28 0 -40z m75 -200 c-7 -7 -12 -8 -12 -2 0 14
12 26 19 19 2 -3 -1 -11 -7 -17z m164 -456 l14 -33 -57 7 c-88 10 -88 11 -36
78 l37 48 14 -33 c8 -19 21 -49 28 -67z"/>
<path d="M804 1114 c-19 -15 -19 -15 1 -6 11 5 27 12 35 15 13 5 13 6 -1 6 -8
1 -24 -6 -35 -15z"/>
<path d="M881 1114 c0 -11 3 -14 6 -6 3 7 2 16 -1 19 -3 4 -6 -2 -5 -13z"/>
<path d="M733 1080 c-24 -11 -43 -21 -43 -24 0 -7 72 23 85 35 12 12 7 11 -42
-11z"/>
<path d="M871 1074 c0 -11 3 -14 6 -6 3 7 2 16 -1 19 -3 4 -6 -2 -5 -13z"/>
<path d="M870 1015 c0 -18 1 -18 36 0 l29 15 -32 0 c-23 0 -33 -5 -33 -15z"/>
<path d="M881 974 c0 -11 3 -14 6 -6 3 7 2 16 -1 19 -3 4 -6 -2 -5 -13z"/>
<path d="M643 937 l-1 -42 10 34 c5 18 6 37 1 42 -4 4 -9 -11 -10 -34z"/>
<path d="M626 875 c-9 -26 -7 -32 5 -12 6 10 9 21 6 23 -2 3 -7 -2 -11 -11z"/>
<path d="M617 833 c-4 -3 -7 -17 -7 -30 0 -12 -4 -23 -10 -23 -5 0 -10 -5 -10
-11 0 -24 28 12 32 41 5 32 5 33 -5 23z"/>
<path d="M858 783 c6 -2 18 -2 25 0 6 3 1 5 -13 5 -14 0 -19 -2 -12 -5z"/>
<path d="M742 759 c-29 -12 -51 -23 -49 -26 3 -2 14 0 26 6 11 6 44 18 73 25
29 8 42 15 28 15 -14 0 -49 -9 -78 -20z"/>
<path d="M581 703 c-6 -20 -8 -39 -6 -42 3 -2 5 1 5 7 0 6 14 19 31 28 26 13
33 14 40 2 7 -10 9 -9 9 5 0 9 5 17 12 17 6 0 9 3 5 6 -3 4 -25 -1 -47 -10
-41 -16 -41 -16 -35 4 3 11 4 20 1 20 -3 0 -10 -17 -15 -37z"/>
<path d="M486 703 c-7 -16 -17 -43 -21 -60 -7 -35 -14 -40 -33 -21 -19 19 -14
1 11 -37 12 -19 29 -35 38 -35 9 0 22 -7 29 -15 14 -17 30 -20 30 -5 0 6 -3 9
-7 8 -5 -1 -21 6 -37 17 -26 18 -28 22 -21 68 3 28 13 63 21 79 8 15 12 28 10
28 -3 0 -12 -12 -20 -27z"/>
<path d="M925 711 c-22 -11 -35 -19 -30 -19 14 -1 93 36 80 37 -5 0 -28 -8
-50 -18z"/>
<path d="M831 679 c-18 -6 -31 -12 -29 -14 5 -5 78 14 78 20 0 6 -8 5 -49 -6z"/>
<path d="M642 660 c0 -14 2 -19 5 -12 2 6 2 18 0 25 -3 6 -5 1 -5 -13z"/>
<path d="M760 650 c-8 -5 -10 -10 -5 -10 6 0 17 5 25 10 8 5 11 10 5 10 -5 0
-17 -5 -25 -10z"/>
<path d="M560 643 c-1 -5 -4 -26 -9 -48 l-7 -40 56 26 c30 15 75 32 99 39 24
6 41 13 39 15 -2 3 -19 0 -38 -5 -18 -5 -37 -7 -41 -4 -5 3 -9 1 -9 -4 0 -8
-69 -42 -86 -42 -4 0 -3 16 0 35 4 19 4 35 1 35 -3 0 -5 -3 -5 -7z"/>
<path d="M1075 615 c-25 -12 -26 -14 -5 -9 28 7 60 23 45 23 -5 0 -23 -6 -40
-14z"/>
<path d="M931 484 c0 -11 3 -14 6 -6 3 7 2 16 -1 19 -3 4 -6 -2 -5 -13z"/>
<path d="M921 444 c0 -11 3 -14 6 -6 3 7 2 16 -1 19 -3 4 -6 -2 -5 -13z"/>
<path d="M922 380 c0 -14 2 -19 5 -12 2 6 2 18 0 25 -3 6 -5 1 -5 -13z"/>
<path d="M580 374 c0 -15 53 -93 66 -98 13 -5 15 3 12 49 l-3 55 -37 0 c-21 0
-38 -3 -38 -6z"/>
<path d="M733 373 c9 -2 23 -2 30 0 6 3 -1 5 -18 5 -16 0 -22 -2 -12 -5z"/>
<path d="M845 355 c67 -28 75 -29 75 -14 0 5 -4 8 -9 5 -5 -3 -29 3 -52 14
-24 11 -51 20 -59 20 -8 0 12 -12 45 -25z"/>
<path d="M859 296 c-2 -3 -29 -6 -60 -7 -30 -1 -64 -6 -74 -11 -13 -5 4 -6 43
-3 37 3 62 1 62 -5 0 -6 17 -10 39 -10 30 0 40 4 44 20 4 16 0 20 -22 20 -15
0 -30 -2 -32 -4z"/>
<path d="M579 203 c-13 -16 -12 -17 4 -4 9 7 17 15 17 17 0 8 -8 3 -21 -13z"/>
<path d="M847 179 c4 -12 0 -25 -8 -31 -11 -8 -10 -9 4 -4 10 3 23 6 28 6 12
0 7 32 -6 42 -17 13 -23 9 -18 -13z"/>
<path d="M768 163 c7 -3 16 -2 19 1 4 3 -2 6 -13 5 -11 0 -14 -3 -6 -6z"/>
<path d="M905 160 c-7 -12 2 -30 16 -30 12 0 12 27 0 35 -5 3 -12 1 -16 -5z"/>
<path d="M967 153 c-10 -10 -8 -33 2 -33 6 0 9 9 8 20 -1 23 -1 22 -10 13z"/>
<path d="M1001 118 c-6 -17 -4 -25 6 -31 8 -5 17 -6 20 -3 4 3 2 6 -4 6 -6 0
-9 11 -8 25 4 31 -3 32 -14 3z"/>
<path d="M1040 106 c5 -13 6 -27 2 -32 -4 -4 -1 -4 6 0 17 10 15 43 -3 49 -11
5 -12 1 -5 -17z"/>
<path d="M1085 100 c-3 -5 -1 -18 4 -27 9 -16 10 -15 11 5 0 15 4 21 12 16 7
-4 8 -3 4 4 -9 15 -23 15 -31 2z"/>
<path d="M1121 71 c-8 -15 -7 -20 6 -25 9 -4 18 -4 21 -1 3 3 0 5 -6 5 -6 0
-9 9 -7 20 5 25 -1 26 -14 1z"/>
</g>
</svg>
